<?xml version="1.0" encoding="UTF-8"?>
<svg width="1200pt" height="1200pt" version="1.1" viewBox="0 0 1200 1200" xmlns="http://www.w3.org/2000/svg">
 <path d="m600 112.5c-129.28 0-253.31 51.375-344.72 142.78-91.406 91.406-142.78 215.44-142.78 344.72 0 129.29 51.375 253.31 142.78 344.72 91.406 91.406 215.44 142.78 344.72 142.78 129.29 0 253.31-51.375 344.72-142.78 91.406-91.406 142.78-215.44 142.78-344.72-0.14062-129.24-51.516-253.18-142.92-344.58-91.406-91.406-215.34-142.78-344.58-142.92zm0 900c-109.41 0-214.31-43.453-291.71-120.79-77.344-77.391-120.79-182.29-120.79-291.71s43.453-214.31 120.79-291.71c77.391-77.344 182.29-120.79 291.71-120.79s214.31 43.453 291.71 120.79c77.344 77.391 120.79 182.29 120.79 291.71-0.14062 109.36-43.641 214.22-120.98 291.52-77.297 77.344-182.16 120.84-291.52 120.98zm-105.98-620.02c-11.672-6.4688-25.875-6.4688-37.5 0-11.859 6.5156-19.172 18.984-19.031 32.531v350.02-0.046875c-0.14062 13.547 7.1719 26.016 19.031 32.531 5.5781 3.375 11.953 5.1094 18.469 4.9688 6.7031 0.046875 13.219-1.6406 19.031-4.9688l300-174.98v-0.046875c11.344-6.8906 18.281-19.172 18.281-32.484s-6.9375-25.594-18.281-32.484zm18.516 317.02-0.046875-219 187.5 109.5z" fill="#1ed660"/>
</svg>
