<?xml version="1.0" encoding="UTF-8"?>
<svg width="1200pt" height="1200pt" version="1.1" viewBox="0 0 1200 1200" xmlns="http://www.w3.org/2000/svg">
 <path d="m1005.8 487.87-674.63-412.18c-40.547-24.797-91.359-25.734-132.79-2.4844-41.484 23.25-67.172 67.078-67.172 114.61v824.34c-0.32812 47.625 25.453 91.594 67.125 114.61 41.391 23.578 92.391 22.641 132.84-2.4844l674.63-412.18c39.094-23.859 62.906-66.328 62.906-112.12 0-45.75-23.812-88.219-62.906-112.12zm-799.6-0.375c0 10.359-8.3906 18.75-18.75 18.75-10.359 0-18.75-8.3906-18.75-18.75v-225c0-10.359 8.3906-18.75 18.75-18.75 10.359 0 18.75 8.3906 18.75 18.75zm-18.75-281.26c-7.5938 0-14.438-4.5469-17.344-11.578-2.8594-6.9844-1.2656-15.047 4.0781-20.438 5.3906-5.3438 13.453-6.9375 20.438-4.0781 7.0312 2.9062 11.578 9.75 11.578 17.344 0 4.9688-1.9688 9.75-5.4844 13.266-3.5156 3.5156-8.2969 5.4844-13.266 5.4844z" fill="#1ed660"/>
</svg>
