<?xml version="1.0" encoding="UTF-8"?>
<svg width="1200pt" height="1200pt" version="1.1" viewBox="0 0 1200 1200" xmlns="http://www.w3.org/2000/svg">
 <path d="m600 112.5c-129.28 0-253.31 51.375-344.72 142.78-91.406 91.406-142.78 215.44-142.78 344.72 0 129.29 51.375 253.31 142.78 344.72 91.406 91.406 215.44 142.78 344.72 142.78 129.29 0 253.31-51.375 344.72-142.78 91.406-91.406 142.78-215.44 142.78-344.72-0.14062-129.24-51.516-253.18-142.92-344.58-91.406-91.406-215.34-142.78-344.58-142.92zm0 900c-109.41 0-214.31-43.453-291.71-120.79-77.344-77.391-120.79-182.29-120.79-291.71s43.453-214.31 120.79-291.71c77.391-77.344 182.29-120.79 291.71-120.79s214.31 43.453 291.71 120.79c77.344 77.391 120.79 182.29 120.79 291.71-0.14062 109.36-43.641 214.22-120.98 291.52-77.297 77.344-182.16 120.84-291.52 120.98zm137.48-562.5v300c0 20.719-16.781 37.5-37.5 37.5-20.672 0-37.5-16.781-37.5-37.5v-300c0-20.719 16.828-37.5 37.5-37.5 20.719 0 37.5 16.781 37.5 37.5zm-200.02 0v300h0.046875c0 20.719-16.828 37.5-37.5 37.5-20.719 0-37.5-16.781-37.5-37.5v-300c0-20.719 16.781-37.5 37.5-37.5 20.672 0 37.5 16.781 37.5 37.5z" fill="#1ed660"/>
</svg>
